<svg width="24" height="25" viewBox="0 0 24 25" fill="none" xmlns="http://www.w3.org/2000/svg">
<path d="M16.8835 9.08788V14.7712C16.8835 15.8758 15.9881 16.7712 14.8835 16.7712H7.88355C6.77898 16.7712 5.88354 15.8758 5.88354 14.7712V7.77124C5.88354 6.66667 6.77898 5.77124 7.88354 5.77124H13.5694" stroke="#3431DC" stroke-linecap="round" stroke-linejoin="round"/>
<path d="M15.4002 2.72875C15.124 2.72875 14.9002 2.9526 14.9002 3.22874C14.9002 3.50489 15.124 3.72875 15.4002 3.72875L15.4002 2.72875ZM19.4002 3.22877H19.9002C19.9002 2.95263 19.6763 2.72877 19.4002 2.72877L19.4002 3.22877ZM18.9002 7.22878C18.9002 7.50492 19.124 7.72878 19.4002 7.72878C19.6763 7.72878 19.9002 7.50492 19.9002 7.22878H18.9002ZM15.4002 3.72875L19.4002 3.72877L19.4002 2.72877L15.4002 2.72875L15.4002 3.72875ZM18.9002 3.22877V7.22878H19.9002V3.22877H18.9002Z" fill="#3431DC"/>
<path d="M19.3652 3.22636L10.8652 11.7264" stroke="#3431DC" stroke-linecap="round" stroke-linejoin="round"/>
</svg>
