<svg width="64" height="43" viewBox="0 0 64 43" fill="none" xmlns="http://www.w3.org/2000/svg">
<path d="M34.1274 25.6929H25.7064V0.0892116C25.7064 0.0356846 25.6709 0 25.6177 0H8.59834C8.54515 0 8.50969 0.0356846 8.50969 0.0892116V8.56432H0.0886426C0.0354571 8.56432 0 8.6 0 8.65353V34.3465C0 34.4 0.0354571 34.4357 0.0886426 34.4357H17.0194V42.9108C17.0194 42.9643 17.0548 43 17.108 43H25.6177C25.6709 43 25.7064 42.9643 25.7064 42.9108V34.4357H34.1274C34.1806 34.4357 34.2161 34.4 34.2161 34.3465V25.7822C34.2161 25.7286 34.1806 25.6929 34.1274 25.6929ZM8.68698 8.74274H17.0194V25.6929H8.68698V8.74274Z" fill="#000105"/>
<path d="M55.4017 25.8714C55.4549 25.8714 55.4903 25.8357 55.4903 25.7822V17.3071H63.9114C63.9646 17.3071 64 17.2714 64 17.2178V0.0892116C64 0.0356846 63.9646 0 63.9114 0H38.3823C38.3291 0 38.2936 0.0356846 38.2936 0.0892116V8.65353C38.2936 8.70705 38.3291 8.74274 38.3823 8.74274H55.313V17.1286H46.892C46.8388 17.1286 46.8033 17.1643 46.8033 17.2178V25.6929H38.3823C38.3291 25.6929 38.2936 25.7286 38.2936 25.7822V42.9108C38.2936 42.9643 38.3291 43 38.3823 43H63.9114C63.9646 43 64 42.9643 64 42.9108V34.3465C64 34.2929 63.9646 34.2573 63.9114 34.2573H46.9806V25.8714H55.4017Z" fill="#000105"/>
</svg>
