<svg viewBox="0 0 275 174" fill="none" xmlns="http://www.w3.org/2000/svg">
<path fill-rule="evenodd" clip-rule="evenodd" d="M104.612 102.86H137.625C138.264 102.86 138.69 103.286 138.69 103.925V138.003C138.69 138.642 138.264 139.068 137.625 139.068H104.612V172.08C104.612 172.719 104.186 173.145 103.547 173.145H69.47C68.831 173.145 68.405 172.719 68.405 172.08V139.068H1.31492C0.675969 139.068 0.25 138.642 0.25 138.003V35.7703C0.25 35.1313 0.675969 34.7053 1.31492 34.7053H34.3275V1.69275C34.3275 1.05379 34.7535 0.627823 35.3924 0.627823H103.547C104.186 0.627823 104.612 1.05379 104.612 1.69275V102.86ZM68.405 102.86V36.8352H36.4574V102.86H68.405ZM171.703 0.627823H273.935C274.574 0.627823 275 1.16028 275 1.69275V69.8478C275 70.4867 274.574 70.9127 273.935 70.9127H240.922V103.925C240.922 104.564 240.497 104.99 239.858 104.99H206.845V136.938H273.935C274.574 136.938 275 137.364 275 138.003V172.08C275 172.719 274.574 173.145 273.935 173.145H171.703C171.064 173.145 170.638 172.719 170.638 172.08V103.925C170.638 103.286 171.064 102.86 171.703 102.86H204.715V69.8478C204.715 69.2088 205.141 68.7829 205.78 68.7829H238.793V36.8352H171.703C171.064 36.8352 170.638 36.4092 170.638 35.7703V1.69275C170.638 1.05379 171.064 0.627823 171.703 0.627823Z" fill="#1715A5" fill-opacity="0.3"/>
</svg>
